<?xml version="1.0" encoding="UTF-8"?>
<svg id="Layer_1" data-name="Layer 1" xmlns="http://www.w3.org/2000/svg" viewBox="0 0 230.13 48.43">
  <g id="Plane">
    <path d="m230.13,32.24c-.02.89-.4,1.73-1.06,2.34-.65.6-1.53.91-2.41.85h-12.71l-9.13,12.65c-.17.23-.43.36-.7.36h-5.2c-.29,0-.57-.14-.73-.39-.16-.25-.19-.55-.07-.83l5.13-11.79h-4.81c-5.96,0-10.79-4.84-10.79-10.79v-3.95c0-.48.39-.87.87-.87h5.2c.31,0,.6.17.75.44l2.35,4.18h6.18l-4.88-11.21c-.13-.28-.1-.61.07-.87.17-.23.44-.36.73-.35h5.2c.28,0,.54.13.7.36l8.71,12.07h7.06c3.87,0,4.85,2.21,5.12,3.33,1.28.53,4.42,2.08,4.42,4.47h0Zm-3.47,1.45c.28,0,1.73-.09,1.73-1.45,0-1.15-2.11-2.37-3.41-2.89h-4.39c-.48,0-.87-.39-.87-.87s.39-.87.87-.87h3.25c-.32-.64-1.15-1.45-3.25-1.45h-24.28c-.31,0-.6-.17-.75-.44l-2.35-4.18h-3.83v3.08c0,5,4.06,9.05,9.06,9.06h5.56l.87-2.08c.14-.32.45-.52.8-.52h9.73c.32,0,.62.18.77.47s.12.64-.07.91l-.87,1.22h11.44Zm-13.87.36l.87-1.22h-7.39l-.87,2.08-5.16,11.79h3.47l9.08-12.63v-.02Zm-1.4-9.61l-7.72-10.69h-3.47l4.65,10.69h6.54Z" style="fill: #2ed573;"/>
    <path d="m217.13,27.62c.48,0,.87.39.87.87s-.39.87-.87.87h-.87c-.48,0-.87-.39-.87-.87s.39-.87.87-.87h.87Zm0,0" style="fill: #2ed573;"/>
    <path d="m212.79,27.62c.48,0,.87.39.87.87s-.39.87-.87.87h-.87c-.48,0-.87-.39-.87-.87s.39-.87.87-.87h.87Zm0,0" style="fill: #2ed573;"/>
    <path d="m208.46,27.62c.48,0,.87.39.87.87s-.39.87-.87.87h-.87c-.48,0-.87-.39-.87-.87s.39-.87.87-.87h.87Zm-4.34,0c.48,0,.87.39.87.87s-.39.87-.87.87h-.87c-.48,0-.87-.39-.87-.87s.39-.87.87-.87h.87Zm-4.34,0c.48,0,.87.39.87.87s-.39.87-.87.87h-.87c-.48,0-.87-.39-.87-.87s.39-.87.87-.87h.87Zm0,0" style="fill: #2ed573;"/>
    <rect x="155.55" y="25.97" width="30.1" height="1" rx=".5" ry=".5" style="fill: #2ed573;"/>
    <rect x="181.74" y="16.55" width="16.61" height="1" rx=".5" ry=".5" style="fill: #2ed573;"/>
    <rect x="167.96" y="42.15" width="30.1" height="1" rx=".5" ry=".5" style="fill: #2ed573;"/>
    <rect x="143.03" y="33.37" width="42.62" height="1" rx=".5" ry=".5" style="fill: #2ed573;"/>
  </g>
  <g id="Cloud">
    <path d="m36.86,11.49c-1.29-6.55-7.07-11.49-14.01-11.49-5.51,0-10.27,3.12-12.66,7.68C4.46,8.29,0,13.15,0,19.05c0,6.31,5.11,11.43,11.43,11.43h24.76c5.26,0,9.52-4.26,9.52-9.52s-3.9-9.11-8.85-9.46h0Zm-.67,15.17H11.43c-4.2,0-7.62-3.42-7.62-7.62s3.42-7.62,7.62-7.62,7.62,3.42,7.62,7.62h3.81c0-5.26-3.55-9.67-8.38-11,1.91-2.56,4.96-4.24,8.38-4.24,5.78,0,10.47,4.7,10.47,10.47v.95h2.86c3.15,0,5.71,2.56,5.71,5.71s-2.56,5.71-5.71,5.71h0Zm0,0" style="fill: #f1f1f1;"/>
  </g>
  <g id="SkySailor">
    <path d="m21.05,38.83c-2.4,0-4.36-.34-5.89-1.01-1.52-.67-2.62-1.57-3.28-2.68-.66-1.12-.89-2.3-.7-3.55.05-.19.15-.37.31-.52.16-.16.34-.23.56-.23h4.61c.34,0,.58.06.72.18.14.12.29.28.43.47.1.36.29.71.58,1.04s.69.61,1.21.81c.52.2,1.16.31,1.93.31,1.39,0,2.51-.22,3.35-.65.84-.43,1.33-1.02,1.48-1.76.14-.53.05-.97-.27-1.31-.32-.35-.89-.66-1.69-.94-.8-.28-1.88-.56-3.22-.85-1.75-.38-3.19-.92-4.32-1.6-1.13-.68-1.91-1.56-2.36-2.63-.44-1.07-.51-2.35-.2-3.83.48-2.21,1.67-3.95,3.56-5.24,1.9-1.28,4.36-1.93,7.38-1.93,1.56,0,2.95.22,4.16.65,1.21.43,2.23,1.01,3.04,1.73.82.72,1.4,1.48,1.76,2.29.36.8.48,1.59.36,2.36-.02.19-.12.37-.29.52-.17.16-.36.23-.58.23h-4.82c-.24,0-.45-.05-.63-.14-.18-.1-.33-.25-.45-.47,0-.53-.28-.99-.83-1.39-.55-.4-1.28-.59-2.2-.59-1.03,0-1.9.19-2.59.56-.7.37-1.13.94-1.3,1.71-.12.48-.05.9.2,1.26.25.36.73.67,1.44.94.71.26,1.69.54,2.93.83,2.11.41,3.77.95,4.97,1.64,1.2.68,2.01,1.54,2.43,2.57.42,1.03.47,2.29.16,3.78-.53,2.45-1.81,4.3-3.83,5.56-2.03,1.26-4.73,1.89-8.12,1.89Z" style="fill: #2ed573;"/>
    <path d="m35.59,38.47c-.26,0-.47-.08-.61-.25-.14-.17-.19-.38-.14-.65l5.08-23.76c.05-.26.17-.48.38-.65.2-.17.44-.25.7-.25h4.14c.26,0,.47.08.61.25.14.17.19.38.14.65l-2.56,11.99,6.01-5.44c.19-.17.38-.31.58-.43.19-.12.46-.18.79-.18h5.15c.41,0,.63.16.67.49.04.32-.11.63-.45.92l-7.96,7.38,5.29,8.64c.19.29.2.58.04.86-.17.29-.44.43-.83.43h-4.72c-.31,0-.55-.06-.7-.18-.16-.12-.28-.25-.38-.4l-4.54-7.34-1.48,7.02c-.05.26-.17.48-.38.65-.2.17-.44.25-.7.25h-4.14Z" style="fill: #2ed573;"/>
    <path d="m57.84,45.31c-.29,0-.48-.13-.58-.38-.1-.25-.06-.51.11-.77l4.39-6.91-3.49-16.45c-.05-.26.01-.5.18-.72s.43-.32.79-.32h3.82c.31,0,.53.08.67.23.13.16.21.33.23.52l2.02,10.48,6.59-10.48c.1-.19.25-.37.45-.52.2-.16.46-.23.77-.23h4.28c.29,0,.49.11.59.34.11.23.09.47-.05.74l-15.3,23.72c-.12.19-.28.37-.49.52-.2.16-.46.23-.77.23h-4.21Z" style="fill: #2ed573;"/>
    <path d="m87.79,38.83c-2.4,0-4.36-.34-5.89-1.01-1.52-.67-2.62-1.57-3.28-2.68-.66-1.12-.89-2.3-.7-3.55.05-.19.15-.37.31-.52.16-.16.34-.23.56-.23h4.61c.34,0,.58.06.72.18.14.12.29.28.43.47.1.36.29.71.58,1.04s.69.61,1.21.81c.52.2,1.16.31,1.93.31,1.39,0,2.51-.22,3.35-.65.84-.43,1.33-1.02,1.48-1.76.14-.53.05-.97-.27-1.31-.32-.35-.89-.66-1.69-.94-.8-.28-1.88-.56-3.22-.85-1.75-.38-3.19-.92-4.32-1.6-1.13-.68-1.91-1.56-2.36-2.63-.44-1.07-.51-2.35-.2-3.83.48-2.21,1.67-3.95,3.56-5.24,1.9-1.28,4.36-1.93,7.38-1.93,1.56,0,2.95.22,4.16.65,1.21.43,2.23,1.01,3.04,1.73.82.72,1.4,1.48,1.76,2.29.36.8.48,1.59.36,2.36-.02.19-.12.37-.29.52-.17.16-.36.23-.58.23h-4.82c-.24,0-.45-.05-.63-.14-.18-.1-.33-.25-.45-.47,0-.53-.28-.99-.83-1.39-.55-.4-1.28-.59-2.2-.59-1.03,0-1.9.19-2.59.56-.7.37-1.13.94-1.3,1.71-.12.48-.05.9.2,1.26.25.36.73.67,1.44.94.71.26,1.69.54,2.93.83,2.11.41,3.77.95,4.97,1.64,1.2.68,2.01,1.54,2.43,2.57.42,1.03.47,2.29.16,3.78-.53,2.45-1.81,4.3-3.83,5.56-2.03,1.26-4.73,1.89-8.12,1.89Z" style="fill: #edf2f4;"/>
    <path d="m108.56,38.83c-1.15,0-2.17-.19-3.04-.56-.88-.37-1.58-.92-2.11-1.66-.53-.73-.88-1.62-1.04-2.66-.17-1.04-.14-2.24.07-3.58.1-.48.18-.91.25-1.28.07-.37.17-.79.29-1.24.31-1.3.74-2.46,1.3-3.49.55-1.03,1.21-1.92,1.98-2.66.77-.74,1.66-1.31,2.68-1.71,1.02-.4,2.14-.59,3.37-.59,1.46,0,2.57.21,3.33.63.76.42,1.36.94,1.82,1.57l.18-.94c.05-.26.17-.48.38-.65.2-.17.44-.25.7-.25h4.03c.24,0,.43.08.58.25.14.17.19.38.14.65l-3.56,16.92c-.05.26-.18.48-.4.65-.22.17-.44.25-.68.25h-4.07c-.24,0-.43-.08-.58-.25-.14-.17-.19-.38-.14-.65l.25-1.15c-.74.7-1.54,1.27-2.39,1.73-.85.46-1.96.68-3.33.68Zm2.48-4.82c.82,0,1.5-.17,2.05-.52.55-.35,1.01-.8,1.37-1.35.36-.55.61-1.15.76-1.8.14-.48.26-.94.34-1.37.08-.43.16-.88.23-1.33.12-.6.13-1.16.02-1.67s-.36-.94-.76-1.26-.98-.49-1.75-.49-1.38.17-1.91.5c-.53.34-.95.79-1.28,1.37-.32.58-.59,1.21-.81,1.91-.1.36-.19.73-.29,1.12-.1.38-.17.76-.22,1.12-.1.7-.11,1.33-.05,1.91s.27,1.03.63,1.37c.36.34.91.5,1.66.5Z" style="fill: #edf2f4;"/>
    <path d="m124.87,38.47c-.26,0-.47-.08-.61-.25-.14-.17-.19-.38-.14-.65l3.6-16.92c.05-.26.18-.48.4-.65.22-.17.46-.25.72-.25h4.25c.24,0,.43.08.56.25.13.17.17.38.13.65l-3.56,16.92c-.05.26-.18.48-.4.65-.22.17-.44.25-.68.25h-4.25Zm4.5-21.42c-.26,0-.46-.08-.59-.25-.13-.17-.19-.38-.16-.65l.72-3.2c.05-.26.18-.49.4-.67.22-.18.44-.27.68-.27h4.32c.26,0,.46.09.59.27.13.18.17.4.13.67l-.68,3.2c-.05.26-.18.48-.4.65-.22.17-.44.25-.68.25h-4.32Z" style="fill: #edf2f4;"/>
    <path d="m145.39,13.16c-.14-.17-.34-.25-.57-.25h-4.25c-.27,0-.5.08-.7.25-.2.17-.33.38-.38.65l-5.08,23.76c-.05.26,0,.48.14.65.14.17.35.25.61.25h4.25c.24,0,.47-.08.68-.25.22-.17.35-.38.4-.65l5.04-23.76c.05-.26,0-.48-.14-.65Z" style="fill: #edf2f4;"/>
    <path d="m164.76,23.14c-.6-1.2-1.55-2.12-2.84-2.77s-2.89-.97-4.79-.97c-2.02,0-3.76.32-5.22.97-1.46.65-2.66,1.57-3.6,2.77-.94,1.2-1.63,2.65-2.09,4.36-.14.46-.28.99-.41,1.6-.13.61-.22,1.16-.27,1.64-.04.26-.05.5-.07.74h6.33c.02-.29.06-.59.11-.92.05-.36.14-.84.27-1.44s.25-1.08.34-1.44c.31-1.27.81-2.24,1.49-2.9.68-.66,1.54-.99,2.57-.99.89,0,1.51.24,1.9.69h6.72c-.1-.47-.24-.92-.45-1.34Z" style="fill: #edf2f4;"/>
    <path d="m158.75,28.47c-.04.2-.08.4-.13.64-.13.6-.25,1.08-.34,1.44-.09.33-.18.63-.29.92h6.35c.08-.24.16-.48.23-.74.12-.48.24-1.03.36-1.64.04-.22.08-.42.12-.62h-6.31Z" style="fill: #edf2f4;"/>
    <path d="m146.93,36.47c.5.55,1.11,1.02,1.84,1.39,1.3.65,2.9.97,4.82.97,2.11,0,3.9-.32,5.36-.97.83-.37,1.56-.84,2.22-1.39h-14.25Z" style="fill: #edf2f4;"/>
    <path d="m166.9,36.47l-.23,1.1c-.05.26,0,.48.14.65.14.17.35.25.61.25h4.46c.26,0,.5-.08.7-.25.2-.17.33-.38.38-.65l.24-1.1h-6.3Z" style="fill: #edf2f4;"/>
    <path d="m167.96,31.47h6.31l.64-3h-6.32l-.64,3Z" style="fill: #edf2f4;"/>
    <path d="m183.3,24.36l.76-3.71c.05-.26,0-.48-.13-.65s-.32-.25-.56-.25h-2.05c-1.27,0-2.34.21-3.2.63-.86.42-1.58.99-2.16,1.71l.29-1.44c.05-.24,0-.45-.13-.63-.13-.18-.33-.27-.59-.27h-4.14c-.26,0-.5.09-.72.27-.22.18-.35.39-.4.63l-.81,3.82h13.8s.04-.07.04-.11Z" style="fill: #edf2f4;"/>
  </g>
</svg>